Title: Shaolin (2011)
Country: China, Hong Kong
Language: Mandarin
Film Genre: Action | Comedy
Original Title: 新少林寺 (Xin Shao Lin Si)
Subtitles: Simplified Chinese (Hard subs), Korean(smi)
Director: Benny Chan
Info Link: http://asianmediawiki.com/Shaolin_%282011-China%29
Cast:
* Andy Lau - Hao Jie
* Nicholas Tse - Cao Man
* Bingbing Fan - Hao Jie's wife
* Jackie Chan - cook
* Jacky Wu - Jing Neng
* Yu Xing - Jing Kong
* Xin Xin Xiong - Sou Xiang Tu
* Jing Wu
* Bing Bai



Plot or synopsis
Set during the early years of the Chinese republic, when feuding warlords waged constant wars to expand their power, young army leader Hao Jie (Andy Lau) and his sworn brother Huo Lung find little resistance invading the township of Dengfeng. The nearby Shaolin Temple opens its doors to the wounded and disciples Jing Neng, Jing Kong and Jing become masked Robin Hoods at night to help the poor. The young and arrogant Hao Jie then challenges the Shaolin masters when he learns they are helping his enemies. Hao Jie wins his duel and becomes even more arrogant.

Nevertheless, the mighty Hao Jie experiences a swift and sudden fall, when he is betrayed by Huo Lung and finds himself at the doorsteps of the Shaolin Temple seeking help. While recuperating, Hao Jie learns the Shaolin style of martial arts and begins to find inner peace. An epic battle then awaits when Huo Lung attacks the Shaolin Temple ...


General
Complete name : Shaolin.2011.CN.SUBBED.DVDRip.XviD.AC3-BAUM.avi
Format : AVI
Format/Info : Audio Video Interleave
Format profile : OpenDML
File size : 1.46 GiB
Duration : 1h 58mn
Overall bit rate : 1 760 Kbps
Writing application : AVI-Mux GUI 1.17.8.3, Feb 16 201019:42:50

Video #0
ID : 0
Format : MPEG-4 Visual
Format profile : Advanced Simple@L5
Format settings, BVOP : Yes
Format settings, QPel : No
Format settings, GMC : No warppoints
Format settings, Matrix : Default (H.263)
Codec ID : XVID
Codec ID/Hint : XviD
Duration : 1h 58mn
Bit rate : 1 563 Kbps
Width : 720 pixels
Height : 304 pixels
Display aspect ratio : 2.35:1
Frame rate : 23.976 fps
Color space : YUV
Chroma subsampling : 4:2:0
Bit depth : 8 bits
Scan type : Progressive
Bits/(Pixel*Frame) : 0.298
Stream size : 1.29 GiB (89%)
Writing library : XviD 1.2.1 (UTC 2008-12-04)

Audio #1
ID : 1
Format : AC-3
Format/Info : Audio Coding 3
Mode extension : CM (complete main)
Codec ID : 2000
Duration : 1h 58mn
Bit rate mode : Constant
Bit rate : 192 Kbps
Channel(s) : 2 channels
Channel positions : Front: L R
Sampling rate : 48.0 KHz
Bit depth : 16 bits
Stream size : 163 MiB (11%)
Alignment : Aligned on interleaves
Interleave, duration : 64 ms (1.53 video frames)
Interleave, preload duration : 192 ms
Title : VTS_01_1 Tc0 L2 2ch 48 128 DELAY 0ms